# Blender v2.80 (sub 75) OBJ File: ''
# www.blender.org
mtllib MonkeySimple.mtl
o Suzanne
v 0.546875 0.054688 0.578125
v -0.546875 0.054688 0.578125
v -0.348823 -0.039891 0.626154
v 0.348823 -0.039891 0.626154
v 0.243136 0.183168 0.809604
v 0.156250 0.054688 0.648438
v -0.156250 0.054688 0.648438
v -0.065623 0.241473 0.664332
v 0.065623 0.241473 0.664332
v 0.293751 0.363527 0.805224
v 0.156250 0.437500 0.648438
v -0.156250 0.437500 0.648438
v 0.351562 0.515625 0.617188
v -0.351562 0.515625 0.617188
v -0.293751 0.363527 0.805224
v -0.467091 0.308394 0.768123
v 0.546875 0.437500 0.578125
v -0.546875 0.437500 0.578125
v 0.633263 0.242030 0.566494
v -0.633263 0.242030 0.566494
v 0.467091 0.308394 0.768123
v -0.243136 0.183168 0.809604
v 0.411605 0.129821 0.794655
v -0.411605 0.129821 0.794655
v 0.000000 0.400778 0.805711
v 0.000000 -0.769082 0.715764
v 0.000000 -0.187500 0.796875
v 0.000000 0.455016 0.615114
v 0.000000 0.898438 -0.546875
v 0.000000 0.562500 -0.851562
v 0.000000 -0.382812 -0.351562
v -0.226815 -0.192583 0.533658
v 0.226815 -0.192583 0.533658
v -0.364485 -0.934935 0.527463
v 0.364485 -0.934935 0.527463
v 0.582274 -0.083975 0.538726
v -0.582274 -0.083975 0.538726
v 0.832894 0.398588 0.625095
v 0.313973 0.743532 0.729632
v -0.313973 0.743532 0.729632
v 0.163534 0.690528 0.762668
v -0.163534 0.690528 0.762668
v 0.261609 0.481956 0.761877
v 0.231559 0.122486 0.752994
v 0.539893 -0.002377 0.638478
v 0.572695 0.365439 0.688196
v -0.261609 0.481956 0.761877
v -0.096450 -0.827595 0.712552
v 0.000000 -0.195312 0.750000
v 0.000000 -0.140625 0.742188
v 0.094944 -0.120279 0.791976
v -0.539893 -0.002377 0.638478
v -0.832894 0.398588 0.625095
v -0.254704 0.640816 0.854056
v 0.254704 0.640816 0.854056
v -0.094944 -0.120279 0.791976
v 0.141460 -0.238190 0.733421
v 0.272967 -0.886192 0.649776
v -0.272967 -0.886192 0.649776
v 0.000000 -0.978405 0.600155
v 0.000000 0.080515 0.736802
v -0.130422 -0.224732 0.811757
v 0.000000 -0.203125 0.828125
v 0.130422 -0.224732 0.811757
v 0.000000 -0.336782 0.757657
v -0.141460 -0.238190 0.733421
v 0.096450 -0.827595 0.712552
v 0.095970 -0.794843 0.642880
v -0.095970 -0.794843 0.642880
v 0.000000 -0.870220 0.674506
v -0.231559 0.122486 0.752994
v -0.412973 0.388532 0.752534
v -0.572695 0.365439 0.688196
v -0.543159 0.212734 0.683209
v -0.460760 0.120128 0.707842
v -0.373829 0.086535 0.728236
v 0.197297 0.296692 0.761588
v -0.197297 0.296692 0.761588
v 0.280962 0.396572 0.770937
v 0.373829 0.086535 0.728236
v 0.460760 0.120128 0.707842
v 0.543159 0.212734 0.683209
v -0.551672 0.288132 0.675783
v 0.551672 0.288132 0.675783
v 0.412973 0.388532 0.752534
v -0.280962 0.396572 0.770937
v 0.199861 0.172703 0.747545
v -0.199861 0.172703 0.747545
v 0.109375 0.460938 0.609375
v -0.109375 0.460938 0.609375
v -0.261462 0.709033 0.606235
v 0.261462 0.709033 0.606235
v -0.457458 0.528564 0.474708
v -0.711654 0.400774 0.307327
v -0.785346 0.119346 0.417886
v 0.785346 0.119346 0.417886
v 0.000000 0.898438 0.289062
v 0.000000 0.984375 -0.078125
v 0.000000 -0.087682 -0.771844
v 0.000000 -0.955036 0.406793
v 0.000000 -0.486100 0.298559
v 0.858176 0.260115 0.033894
v -0.858176 0.260115 0.033894
v -0.833846 0.352238 -0.391235
v -0.459720 0.411020 -0.709570
v -0.729725 -0.042790 0.056862
v 0.637334 -0.131573 -0.129306
v 0.533910 0.047078 -0.538381
v -0.533910 0.047078 -0.538381
v -0.214052 -0.410230 0.341908
v 0.325481 -0.912528 0.409040
v -0.325481 -0.912528 0.409040
v 0.214052 -0.410230 0.341908
v -0.349920 -0.227159 -0.443723
v 0.349920 -0.227159 -0.443723
v 0.453125 0.867188 -0.382812
v -0.453125 0.867188 -0.382812
v -0.476077 0.899132 0.128827
v 0.476077 0.899132 0.128827
v 0.457458 0.528564 0.474708
v 0.711654 0.400774 0.307327
v -0.781498 0.576058 0.095848
v 0.781498 0.576058 0.095848
v 0.770823 0.623203 -0.342437
v -0.770823 0.623203 -0.342437
v 0.459720 0.411020 -0.709570
v -0.444978 -0.202821 -0.147984
v 0.444978 -0.202821 -0.147984
v -0.637334 -0.131573 -0.129306
v -1.037881 -0.075968 -0.309556
v -1.317568 0.071790 -0.491445
v -1.363280 0.310916 -0.445376
v -1.207696 0.489413 -0.396355
v 0.852831 0.367812 -0.193472
v -0.980884 0.376460 -0.258508
v 1.207696 0.489413 -0.396355
v 1.234498 0.248681 -0.433467
v 1.037881 -0.075968 -0.309556
v -0.845118 -0.049599 -0.146843
v 0.980884 0.376460 -0.258508
v 0.845118 -0.049599 -0.146843
v -1.147014 0.048217 -0.437880
v -1.234498 0.248681 -0.433467
v -0.962401 0.305884 -0.351058
v 0.736780 0.072512 -0.234252
v 0.729725 -0.042790 0.056862
v -0.736780 0.072512 -0.234252
v -0.852831 0.367812 -0.193472
v -0.864912 0.016082 -0.314259
v 0.962401 0.305884 -0.351058
v 1.167913 0.336612 -0.431545
v 1.147014 0.048217 -0.437880
v 0.864912 0.016082 -0.314259
v -1.167913 0.336612 -0.431545
v -1.227002 0.480829 -0.552827
v 1.227002 0.480829 -0.552827
v 1.363280 0.310916 -0.445376
v 1.317568 0.071790 -0.491445
v -0.825112 -0.141955 -0.351496
v 0.825112 -0.141955 -0.351496
v 0.833846 0.352238 -0.391235
vt 0.900047 0.600711
vt 0.865294 0.596428
vt 0.920244 0.524371
vt 0.863045 0.814502
vt 0.897955 0.811764
vt 0.914742 0.888926
vt 0.798506 0.569552
vt 0.853018 0.521562
vt 0.795130 0.838386
vt 0.847458 0.888748
vt 0.860099 0.630901
vt 0.859385 0.779832
vt 0.842259 0.702752
vt 0.791018 0.645443
vt 0.896663 0.634707
vt 0.896082 0.777653
vt 0.844752 0.707260
vt 0.921180 0.713713
vt 0.968213 0.770220
vt 0.968392 0.573812
vt 0.543844 0.067935
vt 0.518919 0.053076
vt 0.553110 0.060003
vt 0.701444 0.312420
vt 0.646301 0.247536
vt 0.716667 0.255171
vt 0.416001 0.400021
vt 0.336822 0.319015
vt 0.434765 0.379876
vt 0.599949 0.397117
vt 0.608285 0.376192
vt 0.627716 0.395227
vt 0.521428 0.361080
vt 0.537280 0.191053
vt 0.583131 0.270961
vt 0.519868 0.258416
vt 0.456427 0.272500
vt 0.500867 0.191082
vt 0.461276 0.311337
vt 0.548703 0.164517
vt 0.527898 0.076430
vt 0.509956 0.076418
vt 0.489277 0.164637
vt 0.494020 0.067894
vt 0.536640 0.175745
vt 0.501416 0.175807
vt 0.519132 0.185382
vt 0.519841 0.200843
vt 0.517577 0.190607
vt 0.518984 0.153120
vt 0.519099 0.179457
vt 0.518928 0.070364
vt 0.513982 0.077762
vt 0.518926 0.083741
vt 0.523873 0.077768
vt 0.629920 0.267113
vt 0.612627 0.261471
vt 0.408797 0.269807
vt 0.391525 0.250158
vt 0.426266 0.263602
vt 0.647267 0.283770
vt 0.391580 0.287347
vt 0.435100 0.343509
vt 0.384715 0.312615
vt 0.413540 0.324355
vt 0.579480 0.309446
vt 0.601658 0.328113
vt 0.606436 0.340309
vt 0.439501 0.330982
vt 0.626964 0.320685
vt 0.649104 0.297577
vt 0.654771 0.308161
vt 0.390155 0.301553
vt 0.629320 0.425313
vt 0.553209 0.433063
vt 0.415857 0.430491
vt 0.444124 0.400628
vt 0.492809 0.434538
vt 0.350292 0.396229
vt 0.770919 0.306725
vt 0.558254 0.053877
vt 0.636784 0.083229
vt 0.479647 0.053791
vt 0.484771 0.059936
vt 0.400621 0.082778
vt 0.423476 0.157362
vt 0.369045 0.225782
vt 0.318792 0.259643
vt 0.175905 0.137223
vt 0.112803 0.039739
vt 0.206671 0.086310
vt 0.826520 0.092690
vt 0.805584 0.010786
vt 0.916973 0.056771
vt 0.762425 0.192687
vt 0.794117 0.233462
vt 0.269187 0.193217
vt 0.235814 0.237078
vt 0.874203 0.325258
vt 0.962901 0.344752
vt 0.911671 0.402429
vt 0.907785 0.183317
vt 0.861794 0.236707
vt 0.836684 0.203906
vt 0.819308 0.278589
vt 0.208596 0.287729
vt 0.147220 0.341845
vt 0.160019 0.241216
vt 0.815858 0.445381
vt 0.763011 0.431216
vt 0.786267 0.369211
vt 0.279331 0.457858
vt 0.219260 0.477186
vt 0.249207 0.387964
vt 0.826814 0.463153
vt 0.207578 0.498306
vt 0.262597 0.316840
vt 0.829036 0.210108
vt 0.774439 0.121345
vt 0.785486 0.152330
vt 0.259025 0.119015
vt 0.613919 0.156910
vt 0.854987 0.141773
vt 0.162214 0.865669
vt 0.137464 0.773795
vt 0.186187 0.782849
vt 0.532373 0.749055
vt 0.504669 0.704045
vt 0.575112 0.731157
vt 0.442439 0.685815
vt 0.402979 0.624712
vt 0.317028 0.683005
vt 0.254245 0.699697
vt 0.357746 0.622754
vt 0.547862 0.815571
vt 0.570175 0.788896
vt 0.591638 0.871934
vt 0.245969 0.151002
vt 0.232656 0.176633
vt 0.350761 0.724799
vt 0.443165 0.731721
vt 0.407791 0.726649
vt 0.315148 0.729004
vt 0.337300 0.863005
vt 0.305456 0.861811
vt 0.481254 0.820560
vt 0.449322 0.864147
vt 0.207823 0.810279
vt 0.274563 0.817146
vt 0.225263 0.743995
vt 0.618903 0.781339
vt 0.661965 0.735554
vt 0.707492 0.759884
vt 0.741958 0.591463
vt 0.042009 0.548905
vt 0.106331 0.582808
vt 0.095969 0.726496
vt 0.492015 0.636113
vt 0.658213 0.585676
vt 0.182993 0.724834
vt 0.268788 0.632175
vt 0.498072 0.552315
vt 0.264218 0.550140
vt 0.791018 0.762238
vt 0.918898 0.699697
vt 0.968392 0.645333
vt 0.965038 0.841671
vt 0.667757 0.223502
vt 0.523031 0.433628
vt 0.578110 0.282175
vt 0.461820 0.283719
vt 0.692106 0.388274
vt 0.530189 0.019143
vt 0.647032 0.020893
vt 0.391239 0.020125
vt 0.507714 0.019143
vt 0.232648 0.003484
vt 0.994525 0.167705
vt 0.109380 0.179226
vt 0.011829 0.155367
vt 0.915360 0.259804
vt 0.999856 0.254640
vt 0.106400 0.432652
vt 0.043968 0.367038
vt 0.000144 0.259113
vt 0.098965 0.266968
vt 0.176788 0.196179
vt 0.202183 0.216121
vt 0.417620 0.864486
vt 0.796858 0.178006
vt 0.049526 0.748824
vn 0.5496 0.2675 0.7915
vn 0.3304 -0.4022 0.8538
vn 0.7950 -0.0164 0.6064
vn -0.3304 -0.4022 0.8538
vn -0.5496 0.2675 0.7915
vn -0.7950 -0.0164 0.6064
vn 0.1048 -0.7360 0.6688
vn 0.6580 -0.4821 0.5784
vn -0.1048 -0.7360 0.6688
vn -0.6580 -0.4821 0.5784
vn -0.3356 -0.2420 0.9104
vn 0.3356 -0.2420 0.9104
vn -0.6630 0.0100 0.7485
vn -0.4423 -0.5697 0.6926
vn -0.1029 0.4539 0.8851
vn 0.1029 0.4539 0.8851
vn 0.6630 0.0100 0.7485
vn 0.4630 0.5729 0.6763
vn -0.1614 0.7500 0.6414
vn 0.5960 0.5176 0.6139
vn 0.5385 -0.3933 0.7452
vn 0.0000 -0.9323 0.3616
vn 0.1475 -0.9858 0.0807
vn 0.4387 -0.3511 0.8272
vn 0.4841 -0.5330 0.6939
vn 0.7074 -0.4704 0.5275
vn -0.0707 0.8819 0.4660
vn -0.4955 0.5391 0.6811
vn 0.0658 0.6451 0.7612
vn -0.6191 0.7524 0.2250
vn -0.0658 0.6451 0.7612
vn 0.0707 0.8819 0.4660
vn -0.5259 0.4077 0.7464
vn -0.2451 0.2415 0.9389
vn 0.3347 -0.0371 0.9416
vn 0.0963 0.0087 0.9953
vn 0.0000 0.0316 0.9995
vn -0.0963 0.0087 0.9953
vn 0.2451 0.2415 0.9389
vn -0.0924 -0.1816 0.9790
vn 0.8227 0.1445 0.5497
vn 0.1642 -0.3107 0.9362
vn -0.1642 -0.3107 0.9362
vn -0.8227 0.1445 0.5497
vn -0.5385 -0.3933 0.7452
vn 0.9337 0.2336 0.2714
vn 0.9398 0.3334 0.0751
vn -0.9398 0.3334 0.0751
vn -0.9337 0.2336 0.2714
vn -1.0000 0.0000 0.0000
vn 0.4970 0.7355 0.4605
vn 0.4924 0.3686 0.7884
vn -0.5829 -0.7831 0.2167
vn 0.1083 -0.0958 0.9895
vn 0.1594 0.2357 0.9587
vn 0.0000 -0.2061 0.9785
vn -0.4924 0.3686 0.7884
vn 0.4941 0.7855 0.3726
vn -0.4913 -0.7896 -0.3678
vn 0.3961 -0.2452 0.8849
vn 0.0041 -0.7067 0.7075
vn -0.3961 -0.2452 0.8849
vn -0.4841 -0.5330 0.6939
vn -0.0041 -0.7067 0.7075
vn 0.3286 -0.1613 0.9306
vn -0.3286 -0.1613 0.9306
vn -0.1791 -0.1974 0.9638
vn -0.3546 -0.1281 0.9262
vn -0.3580 0.4062 0.8407
vn 0.0924 -0.1816 0.9790
vn -0.0352 0.0976 0.9946
vn 0.1791 -0.1974 0.9638
vn 0.0352 0.0976 0.9946
vn 0.3580 0.4062 0.8407
vn 0.3333 -0.2372 0.9125
vn 0.3546 -0.1281 0.9262
vn 0.8431 0.1462 0.5175
vn -0.5724 0.5716 -0.5879
vn -0.7011 0.5367 -0.4695
vn 0.5724 0.5716 -0.5879
vn 0.6191 0.7524 0.2250
vn 0.7011 0.5367 -0.4695
vn -0.4374 0.8217 -0.3653
vn -0.4511 0.7911 -0.4131
vn -0.4222 0.8496 -0.3161
vn 0.9986 0.0445 -0.0289
vn 0.8850 0.3411 0.3169
vn 0.9294 0.1043 -0.3539
vn 0.9826 0.1696 0.0763
vn 0.9448 0.1724 -0.2786
vn 0.9201 -0.3860 -0.0664
vn -0.9448 0.1724 -0.2786
vn -0.9826 0.1696 0.0763
vn -0.9201 -0.3860 -0.0664
vn -0.2074 -0.6445 -0.7359
vn -0.4651 -0.4386 -0.7690
vn 0.0000 -0.5018 -0.8650
vn -0.5142 -0.7526 -0.4113
vn 0.5142 -0.7526 -0.4113
vn 0.0000 -0.9441 -0.3298
vn 0.6745 -0.7265 0.1309
vn 0.9952 -0.0724 0.0659
vn -0.6745 -0.7265 0.1309
vn -0.9986 0.0445 -0.0289
vn -0.9952 -0.0724 0.0659
vn 0.4296 0.8415 0.3276
vn 0.0000 1.0000 0.0077
vn -0.0000 0.8189 0.5740
vn 0.4787 0.1332 -0.8678
vn 0.7849 0.5158 -0.3433
vn 0.7744 0.1085 -0.6234
vn 0.8402 0.4508 0.3014
vn -0.8402 0.4508 0.3014
vn -0.4296 0.8415 0.3276
vn -0.7849 0.5158 -0.3433
vn -0.3895 0.2275 -0.8925
vn 0.3895 0.2275 -0.8925
vn -0.0296 0.9219 0.3863
vn 0.3839 0.5984 0.7033
vn -0.0000 0.6958 0.7182
vn -0.3839 0.5984 0.7033
vn 0.0296 0.9219 0.3863
vn -0.8850 0.3411 0.3169
vn 0.9937 0.1014 -0.0481
vn 0.5479 -0.8337 -0.0683
vn 0.3755 -0.9260 -0.0377
vn 0.4465 -0.8662 0.2246
vn -0.5479 -0.8337 -0.0683
vn -0.4465 -0.8662 0.2246
vn 0.9358 -0.2083 0.2845
vn -0.9358 -0.2083 0.2845
vn 0.4651 -0.4386 -0.7690
vn -0.3155 -0.3427 0.8849
vn -0.2007 -0.1571 0.9670
vn -0.1153 -0.1225 0.9857
vn 0.2262 0.5968 0.7699
vn 0.6020 0.2534 0.7572
vn 0.1461 0.6459 0.7493
vn 0.3292 -0.9419 -0.0670
vn 0.3484 -0.7681 0.5372
vn -0.3484 -0.7681 0.5372
vn -0.3292 -0.9419 -0.0670
vn -0.3755 -0.9260 -0.0377
vn 0.1849 -0.2476 0.9510
vn 0.1153 -0.1225 0.9857
vn 0.3155 -0.3427 0.8849
vn -0.8965 -0.4119 -0.1635
vn 0.1256 0.5014 0.8561
vn 0.3566 0.8546 0.3774
vn 0.2395 0.8939 0.3790
vn 0.5550 0.7500 0.3599
vn -0.2395 0.8939 0.3790
vn -0.3566 0.8546 0.3774
vn -0.5550 0.7500 0.3599
vn -0.4524 -0.2413 0.8586
vn -0.5619 -0.1948 0.8040
vn -0.5654 -0.2071 0.7984
vn 0.5654 -0.2071 0.7984
vn 0.5876 -0.3569 0.7262
vn 0.5619 -0.1948 0.8040
vn 0.0567 0.9271 0.3704
vn 0.4599 -0.0494 0.8866
vn -0.1849 -0.2476 0.9510
vn -0.4599 -0.0494 0.8866
vn -0.5876 -0.3569 0.7262
vn -0.3162 -0.0942 0.9440
vn 0.3162 -0.0942 0.9440
vn 0.7604 0.6468 0.0583
vn -0.3716 0.9234 -0.0965
vn -0.3566 0.9310 -0.0785
vn -0.3361 0.9403 -0.0542
vn 0.3361 0.9403 -0.0542
vn 0.3265 0.9442 -0.0430
vn 0.3566 0.9310 -0.0785
vn -0.2784 -0.1281 -0.9519
vn -0.3600 -0.0685 -0.9304
vn -0.2703 -0.1338 -0.9534
vn -0.1925 -0.1872 -0.9633
vn 0.1925 -0.1872 -0.9633
vn 0.2703 -0.1338 -0.9534
vn 0.2784 -0.1281 -0.9519
vn 0.6388 0.0260 -0.7690
vn -0.6388 0.0260 -0.7690
vn 0.5020 -0.0781 -0.8613
vn -0.5020 -0.0781 -0.8613
vn -0.7744 0.1085 -0.6234
vn 0.4423 -0.5697 0.6926
vn -0.4630 0.5729 0.6763
vn 0.1614 0.7500 0.6414
vn -0.5960 0.5176 0.6139
vn -0.1475 -0.9858 0.0807
vn 0.3204 -0.8037 0.5014
vn 0.5573 -0.5942 0.5799
vn -0.3204 -0.8037 0.5014
vn -0.5573 -0.5942 0.5799
vn 0.2186 -0.2766 0.9358
vn 0.2036 -0.3275 0.9226
vn -0.7074 -0.4704 0.5275
vn -0.4387 -0.3511 0.8272
vn 0.4955 0.5391 0.6811
vn 0.5259 0.4077 0.7464
vn -0.2036 -0.3275 0.9226
vn -0.2186 -0.2766 0.9358
vn 0.0000 -0.2583 0.9661
vn -0.3347 -0.0371 0.9416
vn 0.0000 -0.6122 0.7907
vn 0.0000 -0.0669 0.9978
vn -0.7353 0.6436 -0.2124
vn -0.4970 0.7355 0.4605
vn 0.5829 -0.7831 0.2167
vn -0.5209 0.7635 0.3818
vn 0.5209 0.7635 0.3818
vn -0.1083 -0.0958 0.9895
vn -0.1594 0.2357 0.9587
vn 0.0000 -0.4664 0.8846
vn -0.4941 0.7855 0.3726
vn 0.4913 -0.7896 -0.3678
vn 0.5156 -0.3236 0.7933
vn -0.5156 -0.3236 0.7933
vn -0.0934 -0.7883 0.6081
vn 0.0934 -0.7883 0.6081
vn -0.3333 -0.2372 0.9125
vn -0.8431 0.1462 0.5175
vn 0.3392 0.1128 -0.9339
vn -0.3392 0.1128 -0.9339
vn 0.7353 0.6436 -0.2124
vn 0.4222 0.8496 -0.3161
vn 0.4374 0.8217 -0.3653
vn 0.4177 0.8569 -0.3021
vn 0.4511 0.7911 -0.4131
vn -0.4177 0.8569 -0.3021
vn 0.1186 -0.1632 -0.9794
vn 0.0000 -0.1644 -0.9864
vn -0.9294 0.1043 -0.3539
vn -0.1186 -0.1632 -0.9794
vn -0.0000 -0.9874 -0.1583
vn 0.1063 -0.9818 -0.1574
vn -0.1063 -0.9818 -0.1574
vn 0.0000 -0.9871 -0.1598
vn 0.2074 -0.6445 -0.7359
vn 0.0000 0.2864 -0.9581
vn -0.4787 0.1332 -0.8678
vn 0.4183 0.8166 -0.3978
vn 0.0000 0.8432 -0.5377
vn -0.4183 0.8166 -0.3978
vn -0.9937 0.1014 -0.0481
vn 0.2610 -0.1878 0.9469
vn 0.2007 -0.1571 0.9670
vn 0.4524 -0.2413 0.8586
vn -0.2610 -0.1878 0.9469
vn -0.2262 0.5968 0.7699
vn -0.1461 0.6459 0.7493
vn -0.6020 0.2534 0.7572
vn 0.6482 0.1918 0.7369
vn -0.6482 0.1918 0.7369
vn 0.8965 -0.4119 -0.1635
vn -0.1256 0.5014 0.8561
vn -0.0567 0.9271 0.3704
vn 0.0245 -0.9997 -0.0029
vn -0.0245 -0.9997 -0.0029
vn 0.3299 -0.9142 -0.2353
vn -0.3299 -0.9142 -0.2353
vn -0.7604 0.6468 0.0583
vn 0.3716 0.9234 -0.0965
vn -0.3265 0.9442 -0.0430
vn 0.3600 -0.0685 -0.9304
usemtl None
s 1
f 21/1/1 23/2/2 19/3/3
f 24/4/4 16/5/5 20/6/6
f 23/2/2 4/7/7 1/8/8
f 3/9/9 24/4/4 2/10/10
f 23/2/2 5/11/11 4/7/7
f 22/12/12 24/4/4 3/9/9
f 9/13/13 6/14/14 5/11/11
f 5/11/11 10/15/15 9/13/13
f 15/16/16 22/12/12 8/17/17
f 15/16/16 8/17/17 12/18/18
f 15/16/16 12/18/18 14/19/19
f 19/3/3 17/20/20 21/1/1
f 23/2/2 10/15/15 5/11/11
f 22/12/12 15/16/16 24/4/4
f 23/2/2 21/1/1 10/15/15
f 15/16/16 16/5/5 24/4/4
f 58/21/21 60/22/22 35/23/23
f 38/24/24 45/25/25 96/26/26
f 40/27/27 53/28/28 54/29/29
f 41/30/30 55/31/31 39/32/32
f 25/33/33 55/31/31 41/30/30
f 51/34/34 45/25/35 44/35/36
f 44/35/36 61/36/37 51/34/34
f 61/36/37 71/37/38 56/38/39
f 71/37/38 61/36/37 78/39/40
f 57/40/41 67/41/42 58/21/21
f 48/42/43 66/43/44 59/44/45
f 51/34/46 64/45/47 57/40/41
f 62/46/48 56/38/49 66/43/44
f 27/47/50 50/48/50 49/49/50
f 27/47/51 50/48/52 56/38/39
f 66/43/53 65/50/53 62/46/53
f 64/45/54 51/34/55 63/51/56
f 50/48/57 51/34/34 61/36/37
f 56/38/39 50/48/52 61/36/37
f 48/42/58 70/52/58 69/53/58
f 26/54/59 68/55/59 67/41/59
f 45/25/25 81/56/60 80/57/61
f 75/58/62 52/59/63 76/60/64
f 45/25/25 82/61/65 81/56/60
f 74/62/66 52/59/63 75/58/62
f 47/63/67 73/64/68 72/65/69
f 77/66/70 79/67/71 43/68/72
f 47/63/67 72/65/69 86/69/73
f 85/70/74 84/71/75 46/72/76
f 73/64/77 74/62/77 83/73/77
f 41/30/30 92/74/78 89/75/79
f 91/76/80 42/77/81 90/78/82
f 39/32/32 92/74/78 41/30/30
f 40/27/83 91/76/84 93/79/85
f 96/26/86 121/80/87 38/24/88
f 35/23/89 111/81/90 113/82/91
f 112/83/92 34/84/93 110/85/94
f 32/86/95 37/87/95 95/88/95
f 109/89/96 99/90/97 114/91/98
f 115/92/99 31/93/100 99/94/97
f 96/26/86 146/95/101 102/96/102
f 106/97/103 95/88/104 103/98/105
f 119/99/106 98/100/107 97/101/108
f 126/102/109 124/103/110 161/104/111
f 119/99/106 123/105/112 124/103/110
f 122/106/113 118/107/114 125/108/115
f 89/109/79 92/110/78 120/111/116
f 91/112/80 90/113/82 93/114/117
f 89/109/118 120/111/119 28/115/120
f 93/114/121 90/113/122 28/116/120
f 95/88/104 94/117/123 103/98/105
f 102/96/102 123/105/112 121/80/87
f 122/106/113 103/98/105 94/117/123
f 124/103/110 134/118/124 161/104/111
f 115/92/99 128/119/125 113/82/91
f 128/119/125 107/120/126 146/95/101
f 96/26/127 128/119/125 146/95/101
f 127/121/128 95/88/129 106/97/103
f 96/26/127 33/122/130 128/119/125
f 32/86/131 95/88/129 127/121/128
f 33/122/130 113/82/91 128/119/125
f 127/121/128 110/85/94 32/86/131
f 108/123/132 126/102/109 161/104/111
f 128/119/125 108/123/132 107/120/126
f 114/91/98 127/121/128 109/89/96
f 133/124/133 132/125/134 143/126/135
f 152/127/136 138/128/137 158/129/138
f 138/128/139 141/130/140 107/131/126
f 139/132/141 130/133/142 129/134/143
f 151/135/144 137/136/145 136/137/146
f 129/138/143 106/97/103 147/139/147
f 129/134/148 147/140/148 139/132/148
f 141/130/149 153/141/150 145/142/151
f 149/143/152 139/132/153 147/140/154
f 148/144/155 135/145/156 147/140/157
f 145/142/158 150/146/159 140/147/160
f 152/127/161 153/141/150 141/130/149
f 153/141/162 151/135/144 150/146/159
f 154/148/163 149/143/164 144/149/165
f 153/141/162 150/146/159 145/142/158
f 144/149/165 149/143/164 147/140/157
f 154/148/163 142/150/166 149/143/164
f 151/135/144 152/127/167 137/136/145
f 157/151/168 156/152/168 136/153/168
f 136/153/169 156/152/170 134/154/171
f 148/155/172 104/156/173 155/157/174
f 160/158/175 161/159/176 156/152/177
f 156/152/177 158/129/178 160/158/175
f 131/160/179 155/157/180 159/161/181
f 156/152/182 157/151/182 158/129/182
f 131/160/183 132/125/183 155/157/183
f 161/159/111 160/158/184 108/162/132
f 159/161/185 104/156/186 109/163/96
f 19/3/3 23/2/2 1/8/8
f 2/10/10 24/4/4 20/6/6
f 4/7/7 5/11/11 6/14/14
f 7/164/187 22/12/12 3/9/9
f 8/17/17 22/12/12 7/164/187
f 10/15/15 11/165/188 9/13/13
f 10/15/15 13/166/189 11/165/188
f 14/19/19 18/167/190 16/5/5 15/16/16
f 58/21/21 35/23/89 33/122/130 57/40/41
f 20/6/6 16/5/5 18/167/190
f 59/44/45 34/84/191 60/22/22
f 32/86/131 34/84/93 59/44/45 66/43/44
f 45/25/25 51/34/192 33/122/192 36/168/193
f 32/86/194 56/38/194 52/59/63 37/87/195
f 43/68/72 46/72/196 38/24/24 55/31/197
f 36/168/193 96/26/26 45/25/25
f 52/59/63 95/88/198 37/87/195
f 53/28/199 95/88/198 52/59/63
f 39/32/32 55/31/31 38/24/200
f 42/77/81 40/27/27 54/29/29
f 25/33/201 42/77/81 54/29/29
f 47/63/67 54/29/202 53/28/199 73/64/203
f 46/72/196 82/61/65 45/25/25 38/24/24
f 73/64/203 53/28/199 52/59/63 74/62/66
f 77/66/70 43/68/72 55/31/197 25/33/204
f 56/38/39 71/37/38 52/59/205
f 78/39/40 25/33/204 54/29/202 47/63/67
f 60/22/22 58/21/21 67/41/42 70/52/206
f 77/66/70 25/33/204 61/36/37
f 61/36/37 25/33/204 78/39/40
f 44/35/36 77/66/70 61/36/37
f 48/42/43 59/44/45 60/22/22 70/52/206
f 26/54/207 67/41/42 57/40/41 65/50/207
f 26/54/207 65/50/207 66/43/44 48/42/43
f 89/75/79 28/169/208 25/33/208 41/30/30
f 27/47/209 51/34/34 50/48/57
f 57/40/210 64/45/210 65/50/210
f 27/47/209 63/51/211 51/34/34
f 56/38/39 63/51/212 27/47/51
f 62/46/213 63/51/56 56/38/214
f 63/51/56 65/50/215 64/45/54
f 62/46/213 65/50/215 63/51/56
f 33/122/130 51/34/46 57/40/41
f 66/43/44 56/38/49 32/86/131
f 67/41/216 68/55/216 70/52/216
f 26/54/217 48/42/217 69/53/217
f 26/54/218 70/52/218 68/55/218
f 69/53/219 70/52/219 26/54/219
f 44/35/220 45/25/25 80/57/61
f 76/60/64 52/59/63 71/37/221
f 43/68/72 85/70/74 46/72/76
f 78/39/40 47/63/67 86/69/73
f 43/68/72 79/67/71 85/70/74
f 72/65/69 73/64/68 83/73/222
f 46/72/223 84/71/223 82/61/223
f 77/66/224 44/35/224 87/170/224
f 88/171/225 71/37/225 78/39/225
f 25/33/226 28/169/226 90/78/82 42/77/81
f 120/172/227 39/32/228 38/24/229 121/80/229
f 40/27/27 42/77/81 91/76/80
f 39/32/228 120/172/227 92/74/230
f 93/79/85 94/117/231 53/28/231 40/27/83
f 111/81/232 100/173/233 101/174/233 113/82/232
f 95/88/104 53/28/234 94/117/123
f 112/83/235 110/85/235 101/175/233 100/176/233
f 100/176/236 111/81/237 35/23/23 60/22/22
f 34/84/191 112/83/238 100/176/236 60/22/22
f 113/82/91 101/174/239 31/93/100 115/92/99
f 33/122/130 35/23/89 113/82/91
f 110/85/94 34/84/93 32/86/131
f 33/122/240 96/26/240 36/168/240
f 108/123/132 115/92/99 99/94/97
f 114/91/98 99/90/97 31/177/100
f 31/177/100 101/175/239 110/85/94 114/91/98
f 99/94/97 30/178/241 126/102/109 108/123/132
f 13/166/189 10/15/15 21/1/1 17/20/20
f 99/90/97 109/89/96 105/179/242 30/180/241
f 116/181/243 29/182/244 98/100/107 119/99/106
f 118/107/114 97/183/108 98/184/107
f 98/184/107 29/185/244 117/186/245 118/107/114
f 126/102/109 30/178/241 29/182/244 116/181/243
f 29/185/244 30/180/241 105/179/242 117/186/245
f 121/80/87 123/105/112 119/99/106 120/111/119
f 105/179/242 104/187/186 125/108/115
f 126/102/109 116/181/243 124/103/110
f 125/108/115 117/186/245 105/179/242
f 116/181/243 119/99/106 124/103/110
f 125/108/115 118/107/114 117/186/245
f 118/107/114 122/106/113 94/117/123 93/114/121
f 97/101/108 28/115/120 120/111/119 119/99/106
f 97/183/108 118/107/114 93/114/121 28/116/120
f 124/103/110 123/105/112 102/96/102 134/118/124
f 96/26/86 102/96/102 121/80/87
f 103/98/105 122/106/113 125/108/115 148/188/246
f 158/129/247 157/151/248 137/136/145 152/127/167
f 125/108/115 104/187/186 148/188/246
f 114/91/98 110/85/94 127/121/128
f 127/121/128 106/97/103 129/138/143
f 109/89/96 104/187/186 105/179/242
f 127/121/128 129/138/143 109/89/96
f 115/92/99 108/123/132 128/119/125
f 134/189/249 140/147/160 136/137/146
f 133/124/133 135/145/156 148/144/155
f 136/137/146 137/136/145 157/151/248
f 131/160/250 142/150/166 143/126/135 132/125/134
f 136/137/146 140/147/160 150/146/159 151/135/144
f 142/150/251 131/160/252 130/133/253
f 138/128/137 152/127/136 141/130/254
f 139/132/255 142/150/251 130/133/253
f 154/148/163 133/124/133 143/126/135
f 133/124/133 154/148/163 144/149/165 135/145/156
f 134/118/124 102/96/102 146/95/101 145/190/256
f 107/120/126 145/190/256 146/95/101
f 107/131/257 141/130/257 145/142/257
f 134/189/249 145/142/158 140/147/160
f 148/188/246 147/139/147 106/97/103 103/98/105
f 147/140/157 135/145/156 144/149/165
f 142/150/258 139/132/153 149/143/152
f 151/135/144 153/141/162 152/127/167
f 154/148/163 143/126/135 142/150/166
f 138/128/139 107/131/126 160/158/259
f 159/161/260 129/134/143 130/133/142
f 158/129/261 138/128/139 160/158/259
f 159/161/260 130/133/142 131/160/262
f 132/125/263 133/191/263 155/157/263
f 133/191/264 148/155/172 155/157/174
f 134/154/171 156/152/170 161/159/265
f 159/161/181 155/157/180 104/156/266
f 107/131/126 108/162/132 160/158/259
f 159/161/260 109/163/96 129/134/143
